<svg xmlns="http://www.w3.org/2000/svg" xmlns:xlink="http://www.w3.org/1999/xlink" width="92" height="91.017" viewBox="0 0 92 91.017">
  <defs>
    <clipPath id="clip-path">
      <rect id="Rectangle_59" data-name="Rectangle 59" width="92" height="91.017" fill="#6a6a6a"/>
    </clipPath>
    <clipPath id="clip-path-2">
      <rect id="Rectangle_59-2" data-name="Rectangle 59" width="92" height="91.017" fill="#fdb913"/>
    </clipPath>
  </defs>
  <g id="AI-SAAS" transform="translate(-600 -3487)">
    <g id="Group_183" data-name="Group 183" transform="translate(600 3487)">
      <g id="Group_182" data-name="Group 182" transform="translate(0 0)" clip-path="url(#clip-path)">
        <path id="Path_78" data-name="Path 78" d="M49.832,13.106a.953.953,0,0,1-1.521-1.149A13.767,13.767,0,0,1,49.9,10.211,14.063,14.063,0,0,0,22.7,17.32a.95.95,0,0,1-1.323,1.1,11.718,11.718,0,1,0-4.937,22.342h6.3V38.943a3.69,3.69,0,0,1,3.136-3.658L28,34.959a.388.388,0,0,0,.356-.3,20.606,20.606,0,0,1,.967-2.331.419.419,0,0,0-.042-.48L28,30.107a3.7,3.7,0,0,1,.369-4.8l2.344-2.344a3.7,3.7,0,0,1,4.8-.369l1.738,1.279a.407.407,0,0,0,.479.043,19.359,19.359,0,0,1,2.331-.967.418.418,0,0,0,.306-.356l.326-2.128a3.69,3.69,0,0,1,3.658-3.137h3.31a3.689,3.689,0,0,1,3.658,3.137l.327,2.128a.389.389,0,0,0,.3.356,20.539,20.539,0,0,1,2.332.967.415.415,0,0,0,.479-.043L56.5,22.6a3.7,3.7,0,0,1,4.8.369l2.344,2.344a3.7,3.7,0,0,1,.369,4.8l-1.28,1.737a.41.41,0,0,0-.042.48,17.452,17.452,0,0,1,.967,2.331.414.414,0,0,0,.356.3l2.128.327a3.69,3.69,0,0,1,3.136,3.658v1.823H77.76a9.533,9.533,0,1,0-5.6-17.246.957.957,0,0,1-1.551-.924A11.712,11.712,0,0,0,53.965,9.727,11.549,11.549,0,0,0,49.832,13.106ZM82.858,67.023H77.865a.95.95,0,0,1-.779-.4L70.38,58a.958.958,0,0,1-.208-.585l0-14.746H72.1V57.092L78.336,65.1h4.527a4.618,4.618,0,1,1,0,1.924ZM4.629,61.445A4.607,4.607,0,0,1,9.143,65.1h4.527L19.908,57.1l0-14.424h1.921V57.418a.9.9,0,0,1-.208.585l-6.706,8.617a.973.973,0,0,1-.779.4H9.138a4.619,4.619,0,1,1-4.509-5.578ZM70.7,75.661a4.548,4.548,0,0,0-2.517.75l-6.51-6.51V57.821a4.118,4.118,0,0,1-1.921,1.3V70.278a.944.944,0,0,0,.284.674l6.795,6.793A4.631,4.631,0,1,0,70.7,75.661ZM46.954,81.88a4.624,4.624,0,1,1-1.932,0l0-18.035h1.919V81.88ZM21.3,75.661a4.624,4.624,0,1,0,4.624,4.624,4.541,4.541,0,0,0-.751-2.518l6.795-6.793a.959.959,0,0,0,.284-.674l0-11.177a4.118,4.118,0,0,1-1.921-1.3V69.888L23.82,76.4A4.624,4.624,0,0,0,21.3,75.661ZM51.328,24.771a15.429,15.429,0,0,1,2.085.869,2.325,2.325,0,0,0,2.462-.216l1.738-1.28a1.778,1.778,0,0,1,2.31.174l2.344,2.344a1.768,1.768,0,0,1,.174,2.31l-1.28,1.738a2.325,2.325,0,0,0-.216,2.462,17.854,17.854,0,0,1,.869,2.085A2.319,2.319,0,0,0,63.7,36.842l2.128.327a1.761,1.761,0,0,1,1.509,1.759l0,3.315A1.769,1.769,0,0,1,65.823,44l-2.128.326a2.333,2.333,0,0,0-1.886,1.585A15.373,15.373,0,0,1,60.941,48a2.327,2.327,0,0,0,.217,2.463L62.437,52.2a1.778,1.778,0,0,1-.174,2.31L59.92,56.851a1.768,1.768,0,0,1-2.31.175l-1.738-1.28a2.325,2.325,0,0,0-2.462-.216,18.234,18.234,0,0,1-2.085.869,2.318,2.318,0,0,0-1.585,1.886l-.327,2.128a1.76,1.76,0,0,1-1.759,1.508h-3.31a1.769,1.769,0,0,1-1.759-1.508l-.326-2.128A2.332,2.332,0,0,0,40.673,56.4a15.511,15.511,0,0,1-2.085-.869,2.327,2.327,0,0,0-2.463.216l-1.737,1.28a1.778,1.778,0,0,1-2.31-.175l-2.344-2.344a1.768,1.768,0,0,1-.175-2.31l1.28-1.737A2.327,2.327,0,0,0,31.055,48a18.155,18.155,0,0,1-.869-2.085A2.32,2.32,0,0,0,28.3,44.326L26.172,44a1.761,1.761,0,0,1-1.508-1.759v-3.31a1.768,1.768,0,0,1,1.508-1.759l2.128-.327a2.332,2.332,0,0,0,1.886-1.585,15.11,15.11,0,0,1,.869-2.085,2.325,2.325,0,0,0-.216-2.462l-1.28-1.738a1.778,1.778,0,0,1,.175-2.31l2.344-2.344a1.768,1.768,0,0,1,2.31-.174l1.737,1.279a2.327,2.327,0,0,0,2.463.217,17.775,17.775,0,0,1,2.085-.869,2.321,2.321,0,0,0,1.585-1.886l.326-2.129a1.761,1.761,0,0,1,1.759-1.508h3.31a1.768,1.768,0,0,1,1.759,1.508l.327,2.129a2.31,2.31,0,0,0,1.59,1.881M46,30.12a10.477,10.477,0,1,1-7.4,3.069A10.415,10.415,0,0,1,46,30.12m6.044,4.416A8.544,8.544,0,1,1,46,32.031a8.516,8.516,0,0,1,6.044,2.505" transform="translate(0 0)" fill="#fff" fill-rule="evenodd"/>
      </g>
    </g>
    <g id="Group_222" data-name="Group 222" transform="translate(600 3487)">
      <g id="Group_182-2" data-name="Group 182" transform="translate(0 0)" clip-path="url(#clip-path-2)">
        <path id="Path_78-2" data-name="Path 78" d="M49.832,13.106a.953.953,0,0,1-1.521-1.149A13.767,13.767,0,0,1,49.9,10.211,14.063,14.063,0,0,0,22.7,17.32a.95.95,0,0,1-1.323,1.1,11.718,11.718,0,1,0-4.937,22.342h6.3V38.943a3.69,3.69,0,0,1,3.136-3.658L28,34.959a.388.388,0,0,0,.356-.3,20.606,20.606,0,0,1,.967-2.331.419.419,0,0,0-.042-.48L28,30.107a3.7,3.7,0,0,1,.369-4.8l2.344-2.344a3.7,3.7,0,0,1,4.8-.369l1.738,1.279a.407.407,0,0,0,.479.043,19.359,19.359,0,0,1,2.331-.967.418.418,0,0,0,.306-.356l.326-2.128a3.69,3.69,0,0,1,3.658-3.137h3.31a3.689,3.689,0,0,1,3.658,3.137l.327,2.128a.389.389,0,0,0,.3.356,20.539,20.539,0,0,1,2.332.967.415.415,0,0,0,.479-.043L56.5,22.6a3.7,3.7,0,0,1,4.8.369l2.344,2.344a3.7,3.7,0,0,1,.369,4.8l-1.28,1.737a.41.41,0,0,0-.042.48,17.452,17.452,0,0,1,.967,2.331.414.414,0,0,0,.356.3l2.128.327a3.69,3.69,0,0,1,3.136,3.658v1.823H77.76a9.533,9.533,0,1,0-5.6-17.246.957.957,0,0,1-1.551-.924A11.712,11.712,0,0,0,53.965,9.727,11.549,11.549,0,0,0,49.832,13.106ZM82.858,67.023H77.865a.95.95,0,0,1-.779-.4L70.38,58a.958.958,0,0,1-.208-.585l0-14.746H72.1V57.092L78.336,65.1h4.527a4.618,4.618,0,1,1,0,1.924ZM4.629,61.445A4.607,4.607,0,0,1,9.143,65.1h4.527L19.908,57.1l0-14.424h1.921V57.418a.9.9,0,0,1-.208.585l-6.706,8.617a.973.973,0,0,1-.779.4H9.138a4.619,4.619,0,1,1-4.509-5.578ZM70.7,75.661a4.548,4.548,0,0,0-2.517.75l-6.51-6.51V57.821a4.118,4.118,0,0,1-1.921,1.3V70.278a.944.944,0,0,0,.284.674l6.795,6.793A4.631,4.631,0,1,0,70.7,75.661ZM46.954,81.88a4.624,4.624,0,1,1-1.932,0l0-18.035h1.919V81.88ZM21.3,75.661a4.624,4.624,0,1,0,4.624,4.624,4.541,4.541,0,0,0-.751-2.518l6.795-6.793a.959.959,0,0,0,.284-.674l0-11.177a4.118,4.118,0,0,1-1.921-1.3V69.888L23.82,76.4A4.624,4.624,0,0,0,21.3,75.661Z" transform="translate(0 0)" fill="#fdb913" fill-rule="evenodd"/>
      </g>
    </g>
  </g>
</svg>
