<svg xmlns="http://www.w3.org/2000/svg" xmlns:xlink="http://www.w3.org/1999/xlink" width="91.975" height="92" viewBox="0 0 91.975 92">
  <defs>
    <clipPath id="clip-path">
      <rect id="Rectangle_53" data-name="Rectangle 53" width="91.975" height="92" fill="#fff"/>
    </clipPath>
    <clipPath id="clip-path-2">
      <rect id="Rectangle_53-2" data-name="Rectangle 53" width="91.975" height="92" fill="#fdb913"/>
    </clipPath>
  </defs>
  <g id="Capital_deployment" data-name="Capital deployment" transform="translate(-600 -3487)">
    <g id="Group_175" data-name="Group 175" transform="translate(600 3487)">
      <g id="Group_174" data-name="Group 174" transform="translate(0 0)" clip-path="url(#clip-path)">
        <path id="Path_69" data-name="Path 69" d="M91.138,65.666a3.728,3.728,0,0,1-1.106,5.627l-.1.069c-.274.2-27.8,19.934-39.79,20.629-7.046.372-25.5-10.295-28.7-12.174V58.081c1.076,0,2.995-.059,5.412-.059H35.6a23.9,23.9,0,0,1,10.51,3.043,30.7,30.7,0,0,1,6.126,4.306.979.979,0,0,0,.656.245h11.1a3.817,3.817,0,0,1,3.836,3.68v.294a1.9,1.9,0,0,1-.059.568c-.059.2,0,.117,0,.2a2.755,2.755,0,0,1-.157.5,1.579,1.579,0,0,1-.078.176A3.845,3.845,0,0,1,63.991,73.4H42.638a.979.979,0,1,0,0,1.957H63.991a5.793,5.793,0,0,0,4.688-2.4L86.6,64.677a3.712,3.712,0,0,1,1.9-.372,3.334,3.334,0,0,1,.45.069,3.742,3.742,0,0,1,2.192,1.292M72.417,45.917A11.342,11.342,0,1,1,61.065,34.585h.02A11.343,11.343,0,0,1,72.417,45.917M59.108,43.578a1.957,1.957,0,0,1,3.914,0,.979.979,0,1,0,1.957,0,3.67,3.67,0,0,0-2.936-3.5v-.93a.979.979,0,0,0-1.957,0v.979a3.68,3.68,0,0,0-2.936,3.5,3.8,3.8,0,0,0,3.914,3.64,1.7,1.7,0,1,1-1.957,1.673.979.979,0,1,0-1.957,0,3.7,3.7,0,0,0,2.936,3.5v.979a.979.979,0,1,0,1.957,0v-.979a3.689,3.689,0,0,0,2.936-3.5,3.777,3.777,0,0,0-3.914-3.631A1.84,1.84,0,0,1,59.109,43.6v-.017M13.466,79.787A1.8,1.8,0,0,0,15.276,78v-.01a1.811,1.811,0,1,0-1.85,1.83h.039ZM0,82.1V55.39a1.957,1.957,0,0,1,1.957-1.957H17.615a1.957,1.957,0,0,1,1.957,1.957V82.1a1.957,1.957,0,0,1-1.957,1.957H1.957A1.957,1.957,0,0,1,0,82.1m9.7-4.081a3.768,3.768,0,1,0,3.768-3.787A3.768,3.768,0,0,0,9.7,78.016ZM69.188,14.68H52.845a2.124,2.124,0,0,0-1.957,2.114A2.084,2.084,0,0,0,52.2,18.751l.3.088a2,2,0,0,0,.47.059H69.129a2.17,2.17,0,0,0,.587-.1l.206-.059a2.111,2.111,0,0,0-.558-4.051,1.182,1.182,0,0,1-.176-.01M74.423,2.242a1.116,1.116,0,0,0-1.38-.235L69.334,3.964a3.67,3.67,0,0,1-4.325-.656L62.288.471A1.663,1.663,0,0,0,61.065,0a1.7,1.7,0,0,0-1.2.519l-2.7,2.828a3.669,3.669,0,0,1-4.316.665l-3.7-1.957a1.1,1.1,0,0,0-1.37.215,1.116,1.116,0,0,0-.137,1.4l5.686,9.052H68.982L74.59,3.661a1.117,1.117,0,0,0-.166-1.39ZM69.785,69.766v-.489a5.764,5.764,0,0,0-5.793-5.607H53.315a33.857,33.857,0,0,0-6.224-4.325A25.848,25.848,0,0,0,35.7,56.075H33.185A64.641,64.641,0,0,1,33.9,45.311c1.957-13.5,14.679-22.41,18.124-24.583h.323a4,4,0,0,0,.665.059H69.129a3.871,3.871,0,0,0,.656-.059h.323C73.542,22.9,86.323,31.816,88.241,45.311a54.8,54.8,0,0,1,.108,17.008h-.206a3.455,3.455,0,0,0-.45,0h-.088l-.587.088a2.07,2.07,0,0,0-.626.176l-.254.1-.362.166L69.736,70.294v-.323a.135.135,0,0,1,0-.069Zm4.59-23.849a13.3,13.3,0,1,0-13.309,13.29h.02a13.318,13.318,0,0,0,13.29-13.29" transform="translate(0 0)" fill="#fff"/>
      </g>
    </g>
    <g id="Group_218" data-name="Group 218" transform="translate(600 3487)">
      <g id="Group_174-2" data-name="Group 174" transform="translate(0 0)" clip-path="url(#clip-path-2)">
        <path id="Path_69-2" data-name="Path 69" d="M67.556,54.4,75.678,14.68H59.336a2.124,2.124,0,0,0-1.957,2.114,2.084,2.084,0,0,0,1.311,1.957l.3.088a2,2,0,0,0,.47.059H75.62a2.17,2.17,0,0,0,.587-.1l.206-.059a2.111,2.111,0,0,0-.558-4.051,1.182,1.182,0,0,1-.176-.01M80.914,2.242a1.116,1.116,0,0,0-1.38-.235L75.825,3.964A3.67,3.67,0,0,1,71.5,3.309L68.779.471A1.663,1.663,0,0,0,67.556,0a1.7,1.7,0,0,0-1.2.519l-2.7,2.828a3.669,3.669,0,0,1-4.316.665l-3.7-1.957a1.1,1.1,0,0,0-1.37.215,1.116,1.116,0,0,0-.137,1.4l5.686,9.052H75.473L81.08,3.661a1.117,1.117,0,0,0-.166-1.39ZM76.275,69.766v-.489a5.764,5.764,0,0,0-5.793-5.607H59.805a33.857,33.857,0,0,0-6.224-4.325A25.848,25.848,0,0,0,42.19,56.075H39.675a64.641,64.641,0,0,1,.714-10.765c1.957-13.5,14.679-22.41,18.124-24.583h.323a4,4,0,0,0,.665.059H75.62a3.871,3.871,0,0,0,.656-.059H76.6C80.033,22.9,92.814,31.816,94.732,45.311a54.8,54.8,0,0,1,.108,17.008h-.206a3.455,3.455,0,0,0-.45,0H94.1l-.587.088a2.07,2.07,0,0,0-.626.176l-.254.1-.362.166L76.226,70.294v-.323a.135.135,0,0,1,0-.069Zm4.59-23.849a13.3,13.3,0,1,0-13.309,13.29h.02a13.318,13.318,0,0,0,13.29-13.29" transform="translate(-6.491 0)" fill="#fdb913"/>
      </g>
    </g>
  </g>
</svg>
