<svg xmlns="http://www.w3.org/2000/svg" xmlns:xlink="http://www.w3.org/1999/xlink" width="92" height="80.33" viewBox="0 0 92 80.33">
  <defs>
    <clipPath id="clip-path">
      <rect id="Rectangle_63" data-name="Rectangle 63" width="92" height="80.33" fill="#fff"/>
    </clipPath>
    <clipPath id="clip-path-2">
      <rect id="Rectangle_63-2" data-name="Rectangle 63" width="92" height="80.33" fill="#fdb913"/>
    </clipPath>
  </defs>
  <g id="Hiring_Org" data-name="Hiring &amp; Org" transform="translate(-6309 -2160.662)">
    <g id="Group_231" data-name="Group 231" transform="translate(6309 2160.662)">
      <g id="Group_230" data-name="Group 230" transform="translate(0 0)" clip-path="url(#clip-path)">
        <path id="Path_92" data-name="Path 92" d="M76.361,50.307l7.445,4.149V71.262H81.932l-10.35-16.01a1.191,1.191,0,0,0-.778-.519,1.159,1.159,0,0,0-.912.213c-6.193,4.583-8.578,4.591-8.928,4.234-.375-.388-.031-2.437,1.971-4.984,2.928-3.722,8.19-6.976,13.4-3.906l.025.013ZM70.28,57.574c-5.567,3.944-9.263,5.038-11.006,3.245-1.231-1.265-.888-3.425.183-5.545-1.037.328-1.7.618-1.709.623a1.225,1.225,0,0,1-.456.1l-5.247.107V71.373l2.89-.047h.023a1.172,1.172,0,0,1,1.1.753c2.275,5.887,4.576,7.62,6.1,8.041a3.268,3.268,0,0,0,1.828-.025l-3.11-5.085a1.178,1.178,0,1,1,2.011-1.227l3.62,5.924a3.387,3.387,0,0,0,2.448.571,3.3,3.3,0,0,0,1.581-.886l-4.5-7.36a1.178,1.178,0,0,1,2.011-1.227l4.773,7.811a2.6,2.6,0,0,0,2.1.328,2.14,2.14,0,0,0,.941-1.231L70.709,69.35a1.178,1.178,0,1,1,2.005-1.239l5.136,8.326a2.7,2.7,0,0,0,2.274-.476c.627-.741.3-2.343.1-3l-9.94-15.379Zm21.153-5.592H86.726a.569.569,0,0,0-.562.557V73.655a.566.566,0,0,0,.562.558h4.707A.57.57,0,0,0,92,73.655V52.539a.57.57,0,0,0-.567-.557M85.007,25.133a12.412,12.412,0,1,1-.365-17.56,12.432,12.432,0,0,1,.365,17.56ZM82.693,11.2a1.177,1.177,0,0,0-1.665.081l-7.21,7.943-2.849-2.909a1.178,1.178,0,1,0-1.682,1.649l3.721,3.8a1.184,1.184,0,0,0,.844.353h.022a1.175,1.175,0,0,0,.852-.387l8.049-8.872a1.177,1.177,0,0,0-.081-1.665ZM52.051,53.746l4.974-.1a23.486,23.486,0,0,1,4.378-1.3c3.255-3.91,8.34-6.652,13.438-5.238V31.258a14.682,14.682,0,0,1-7.369-2.683A44.38,44.38,0,0,1,43.838,39.909V42.95a6.193,6.193,0,0,1-6.413,6.375,6.584,6.584,0,0,1-4.379-1.592A6.164,6.164,0,0,1,31.01,42.95V39.9a44.161,44.161,0,0,1-19.339-7.815A44.564,44.564,0,0,1,.009,19.674v38.9A3.175,3.175,0,0,0,3.183,61.74l38.318,0v-5H6.178a1.18,1.18,0,1,1,0-2.359l35.323,0V53.159a2.927,2.927,0,0,1,2.922-2.922h4.7a2.926,2.926,0,0,1,2.922,2.922v.592ZM37.42,46.966a3.832,3.832,0,0,0,4.059-4.021V31.369H33.361V42.944A3.834,3.834,0,0,0,37.42,46.966Zm11.709,5.622h-4.7a.574.574,0,0,0-.566.567V74.27a.569.569,0,0,0,.566.557h4.7a.569.569,0,0,0,.566-.557V53.154a.574.574,0,0,0-.566-.567M51.36,5.69A5.7,5.7,0,0,0,45.67,0H29.178a5.7,5.7,0,0,0-5.69,5.69V9.149H51.363V5.69ZM31.007,37.518v-7.33a1.179,1.179,0,0,1,1.18-1.18H42.659a1.181,1.181,0,0,1,1.181,1.18v7.33A41.343,41.343,0,0,0,65.658,27.037,14.8,14.8,0,0,1,62.148,11.5l-58.975.009A3.175,3.175,0,0,0,0,14.686v.2A41.683,41.683,0,0,0,31,37.527Z" transform="translate(0 0)" fill="#fff"/>
      </g>
    </g>
    <g id="Group_232" data-name="Group 232" transform="translate(6309 2160.662)">
      <g id="Group_230-2" data-name="Group 230" transform="translate(0 0)" clip-path="url(#clip-path-2)">
        <path id="Path_92-2" data-name="Path 92" d="M72.727,49.966l7.445,4.149V70.921H78.3L67.948,54.91a1.191,1.191,0,0,0-.778-.519,1.159,1.159,0,0,0-.912.213c-6.193,4.583-8.578,4.591-8.928,4.234-.375-.388-.031-2.437,1.971-4.984,2.928-3.722,8.19-6.976,13.4-3.906l.025.013Zm-6.081,7.267c-5.567,3.944-9.263,5.038-11.006,3.245-1.231-1.265-.888-3.425.183-5.545-1.037.328-1.7.618-1.709.623a1.225,1.225,0,0,1-.456.1l-5.247.107V71.032l2.89-.047h.023a1.172,1.172,0,0,1,1.1.753c2.275,5.887,4.576,7.62,6.1,8.041a3.268,3.268,0,0,0,1.828-.025l-3.11-5.085a1.178,1.178,0,1,1,2.011-1.227l3.62,5.924a3.387,3.387,0,0,0,2.448.571,3.3,3.3,0,0,0,1.581-.886l-4.5-7.36a1.178,1.178,0,0,1,2.011-1.227l4.773,7.811a2.6,2.6,0,0,0,2.1.328,2.14,2.14,0,0,0,.941-1.231l-5.156-8.365a1.178,1.178,0,1,1,2.005-1.239L74.218,76.1a2.7,2.7,0,0,0,2.274-.476c.627-.741.3-2.343.1-3l-9.94-15.379ZM87.8,51.64H83.093a.569.569,0,0,0-.562.557V73.314a.566.566,0,0,0,.562.558H87.8a.57.57,0,0,0,.567-.558V52.2a.57.57,0,0,0-.567-.557M81.373,24.791a12.412,12.412,0,1,1-.365-17.56,12.432,12.432,0,0,1,.365,17.56ZM79.06,10.86a1.177,1.177,0,0,0-1.665.081l-7.21,7.943-2.849-2.909a1.178,1.178,0,1,0-1.682,1.649l3.721,3.8a1.184,1.184,0,0,0,.844.353h.022a1.175,1.175,0,0,0,.852-.387l8.049-8.872a1.177,1.177,0,0,0-.081-1.665ZM45.5,52.246h-4.7a.574.574,0,0,0-.566.567V73.929a.569.569,0,0,0,.566.557h4.7a.569.569,0,0,0,.566-.557V52.813a.574.574,0,0,0-.566-.567" transform="translate(3.633 0.342)" fill="#fdb913"/>
      </g>
    </g>
  </g>
</svg>
