<svg id="IT_ADMIN" data-name="IT &amp; ADMIN" xmlns="http://www.w3.org/2000/svg" xmlns:xlink="http://www.w3.org/1999/xlink" width="86.844" height="86.843" viewBox="0 0 86.844 86.843">
  <defs>
    <clipPath id="clip-path">
      <rect id="Rectangle_64" data-name="Rectangle 64" width="86.844" height="86.843" transform="translate(0 0)" fill="none"/>
    </clipPath>
  </defs>
  <g id="Group_234" data-name="Group 234" clip-path="url(#clip-path)">
    <path id="Path_93" data-name="Path 93" d="M64.472,60.526a5.262,5.262,0,1,1,5.262-5.262,5.267,5.267,0,0,1-5.262,5.262m0-7.9a2.633,2.633,0,1,0,2.633,2.633,2.634,2.634,0,0,0-2.633-2.633" fill="#fdb913"/>
    <path id="Path_94" data-name="Path 94" d="M69.737,78.948H59.21A3.954,3.954,0,0,1,55.26,75V71.05a9.211,9.211,0,1,1,18.422,0V75a3.953,3.953,0,0,1-3.949,3.949ZM64.471,64.471a6.586,6.586,0,0,0-6.578,6.578V75a1.317,1.317,0,0,0,1.316,1.317H69.736A1.317,1.317,0,0,0,71.053,75V71.049a6.586,6.586,0,0,0-6.578-6.578Z" fill="#fdb913"/>
    <path id="Path_95" data-name="Path 95" d="M64.472,86.843A22.367,22.367,0,1,1,86.839,64.476,22.391,22.391,0,0,1,64.472,86.843m0-42.105A19.738,19.738,0,1,0,84.21,64.476,19.761,19.761,0,0,0,64.472,44.738" fill="#fdb913"/>
    <path id="Path_96" data-name="Path 96" d="M67.105,13.159H6.578A6.58,6.58,0,0,0,0,19.737V80.264a6.58,6.58,0,0,0,6.578,6.578H53.34A24.886,24.886,0,0,1,44,78.8a12.574,12.574,0,0,1-1.894.144,13.156,13.156,0,1,1,0-26.312,3.509,3.509,0,0,1,.355.012A24.788,24.788,0,0,1,49.3,44.635a.969.969,0,0,0-.172-.066,3.918,3.918,0,0,1-2.344-1.988L45.6,40.2a1.3,1.3,0,0,0-1.184-.723H39.785A1.307,1.307,0,0,0,38.6,40.2l-1.184,2.383a3.967,3.967,0,0,1-2.344,2,21.553,21.553,0,0,0-3.011,1.238,4.029,4.029,0,0,1-3.067.25l-2.512-.844a1.328,1.328,0,0,0-1.355.317l-3.277,3.277a1.329,1.329,0,0,0-.317,1.356l.844,2.511a4.029,4.029,0,0,1-.25,3.067,23.223,23.223,0,0,0-1.25,3.011,3.916,3.916,0,0,1-1.988,2.344l-2.383,1.184a1.3,1.3,0,0,0-.723,1.183v4.633a1.309,1.309,0,0,0,.723,1.184l2.383,1.183a3.967,3.967,0,0,1,2,2.344,21.615,21.615,0,0,0,1.238,3.012,4.026,4.026,0,0,1,.25,3.066l-.844,2.512a1.327,1.327,0,0,0,.317,1.355l1.461,1.45H19.656a3.878,3.878,0,0,1-.617-3.633l.844-2.512a1.356,1.356,0,0,0-.106-1.051A25.284,25.284,0,0,1,18.4,73.651a1.461,1.461,0,0,0-.672-.816L15.34,71.651a3.935,3.935,0,0,1-2.184-3.539V63.479A3.943,3.943,0,0,1,15.34,59.94l2.383-1.183a1.381,1.381,0,0,0,.656-.817,27.212,27.212,0,0,1,1.4-3.367,1.362,1.362,0,0,0,.1-1.051l-.844-2.512A3.937,3.937,0,0,1,20,46.971l3.278-3.277a3.934,3.934,0,0,1,4.039-.961l2.511.844a1.356,1.356,0,0,0,1.051-.106,25.284,25.284,0,0,1,3.367-1.382,1.463,1.463,0,0,0,.817-.672l1.183-2.383a3.936,3.936,0,0,1,3.539-2.184h4.633a3.942,3.942,0,0,1,3.539,2.184l1.184,2.383a1.38,1.38,0,0,0,.816.656c.684.238,1.356.488,2.012.777a24.916,24.916,0,0,1,21.711-1.6v-21.5A6.58,6.58,0,0,0,67.1,13.167ZM21.054,18.42H22.37a1.316,1.316,0,1,1,0,2.633H21.054a1.316,1.316,0,0,1,0-2.633m-6.582,0h1.316a1.316,1.316,0,1,1,0,2.633H14.472a1.316,1.316,0,0,1,0-2.633m-6.578,0H9.21a1.316,1.316,0,1,1,0,2.633H7.894a1.316,1.316,0,0,1,0-2.633m31.578,7.9H2.632V23.682H39.476a1.317,1.317,0,0,1,0,2.633Zm11.844,0h-7.9a1.317,1.317,0,0,1,0-2.633h7.9a1.317,1.317,0,0,1,0,2.633m6.578,0H55.261a1.317,1.317,0,0,1,0-2.633h2.633a1.317,1.317,0,0,1,0,2.633" fill="#fff"/>
    <path id="Path_97" data-name="Path 97" d="M42.46,76.3a3.509,3.509,0,0,1-.355.012A10.526,10.526,0,0,1,41.222,55.3a24.907,24.907,0,0,0,1.238,21Z" fill="#fdb913"/>
    <path id="Path_98" data-name="Path 98" d="M86.843,18.421A18.45,18.45,0,0,1,76.316,35.066V19.738a9.223,9.223,0,0,0-9.211-9.211H51.777a18.422,18.422,0,0,1,35.067,7.9Z" fill="#fdb913"/>
  </g>
</svg>
