<svg xmlns="http://www.w3.org/2000/svg" xmlns:xlink="http://www.w3.org/1999/xlink" width="92" height="86.806" viewBox="0 0 92 86.806">
  <defs>
    <clipPath id="clip-path">
      <rect id="Rectangle_46" data-name="Rectangle 46" width="92" height="86.806" fill="#fff"/>
    </clipPath>
  </defs>
  <g id="Learning-Skill-Acceleration" transform="translate(0 0)">
    <g id="Group_132" data-name="Group 132" transform="translate(0 0)" clip-path="url(#clip-path)">
      <path id="Path_40" data-name="Path 40" d="M63.522,42.839l-.7,4.24c-.116.7-2.606.465-2.91-.17l-1.647-3.441-1.817,3.42c-1.04,1.957-7.406-1.728-8.024,2.356l35.588.261c1.069,1.227.966,6.378-.847,6.379l-54.014.02-.226-29.561,10.256-.327a6.719,6.719,0,0,0,6.574-8.045l-13.7-.146a7.563,7.563,0,0,1-2.817-.663c-.576-.315.139-2.739.571-3.542l54.8-.036.181,33.309-5.655.335c-2.6.155,1.209-9.689-2.548-10.8l-.593,10.685L72.179,47l-1.3-8.32L69.1,46.862c-.462.182-2.652.9-2.787.381l-.943-3.6-.548-2.119c-.1-.379-1.211.788-1.3,1.311m-18.447-6.7,4.515,5.193,10-11.56,4.881,7.444L75.546,24.256l2.1,6.333a65.189,65.189,0,0,0,.643-10.118,22.158,22.158,0,0,0-10.443.395l6.01,1.854L64.785,33.634l-4.728-7.75L49.534,38.207l-4.612-5.739c-3.857,4.623-7.525,7.386-8.994,13.257Z" transform="translate(7.214 3.388)" fill="#fff"/>
      <path id="Path_41" data-name="Path 41" d="M15.743,54.344,14.82,81.08c-1.5,1.2-5.985,1.216-8.457.462L5.371,27.226,4.044,53.858C2.435,53.782.027,51.354.026,49.6L0,23.554c0-1.933,2.892-4.99,5.009-4.99l45.8-.014c-.187,1.7-2.544,4.224-4.1,4.254l-20.981.412-.089,57.36c-1.432,2.136-6.778,1.81-8.632.45-.381-9.443,2.443-17.2-1.262-26.682" transform="translate(0 4.627)" fill="#fff"/>
      <path id="Path_42" data-name="Path 42" d="M56.232,74.6,55.01,57.766l-1.293,16.6-16.382-.074L47.765,49.8c4.011-1.137,9.441-1.025,13.9-.411L72.336,74.244Z" transform="translate(9.312 12.205)" fill="#fdb913"/>
      <path id="Path_43" data-name="Path 43" d="M12.316.24C16.5-.827,20.567,1.829,21.3,4.945c1.037,4.393-.857,8.486-5.205,9.454A7.621,7.621,0,0,1,7.265,9.875,7.235,7.235,0,0,1,12.316.24" transform="translate(1.701 0)" fill="#fff"/>
      <path id="Path_44" data-name="Path 44" d="M72.541,12.52l-33.789.036a5.445,5.445,0,0,1-2.972-1.768c-.467-.806,1.908-2.568,3-2.565l32.9.082c.895,0,2.373,1.047,2.88,1.346s-1.213,2.867-2.018,2.869" transform="translate(8.909 2.051)" fill="#fdb913"/>
      <path id="Path_45" data-name="Path 45" d="M60.4,7.412c-1.342.116-17.869,1.669-16.006-2.042.29-.576,2.029-2.1,2.671-2.1L58.376,3.24a13.713,13.713,0,0,1,3.1,1.028c.582.246-.45,3.089-1.078,3.144" transform="translate(11.035 0.808)" fill="#fdb913"/>
    </g>
  </g>
</svg>
