<svg xmlns="http://www.w3.org/2000/svg" xmlns:xlink="http://www.w3.org/1999/xlink" width="97.193" height="105.01" viewBox="0 0 97.193 105.01">
  <defs>
    <clipPath id="clip-path">
      <rect id="Rectangle_38" data-name="Rectangle 38" width="97.193" height="105.01" fill="#fdb913"/>
    </clipPath>
  </defs>
  <g id="Learning" transform="translate(0 0)">
    <g id="Group_113" data-name="Group 113" transform="translate(0 0)" clip-path="url(#clip-path)">
      <path id="Path_20" data-name="Path 20" d="M71.773,30.266l8.268,6.32a.961.961,0,0,0,1.165-1.529L72.94,28.736a.962.962,0,0,0-1.167,1.53m5.922,7.224a.96.96,0,1,1-1.166,1.524l-6.176-4.723a.962.962,0,0,1,1.166-1.53ZM74.486,26.541a1.166,1.166,0,0,1-.217-1.638,6.631,6.631,0,0,0,1.385-4.642,10.783,10.783,0,1,1,12.823,9.8,6.658,6.658,0,0,0-4.117,2.554,1.177,1.177,0,0,1-1.641.218ZM89.941,12.969a.961.961,0,0,0-.554-1.243,8.292,8.292,0,0,0-8.91,1.938.962.962,0,0,0,1.374,1.347A6.375,6.375,0,0,1,88.7,13.523.959.959,0,0,0,89.941,12.969Zm-48.355,51,32.139-7.8v9.021h-3c-3.816,0-5.752,3.621-3.018,5.708a2.843,2.843,0,0,0,0,4.751,2.837,2.837,0,0,0,0,4.745c-2.74,2.1-.792,5.713,3.018,5.713h3V97.21l-32.139,7.8Zm-1.922,0V105.01l-32.14-7.8V86.1h3c3.811,0,5.753-3.617,3.017-5.713a2.838,2.838,0,0,0,0-4.746,2.842,2.842,0,0,0,0-4.751c2.737-2.087.8-5.708-3.017-5.708h-3V56.169Z" transform="translate(0 0)" fill="#fdb913" fill-rule="evenodd"/>
    </g>
  </g>
</svg>
