<svg id="Narrative_Branding" data-name="Narrative &amp; Branding" xmlns="http://www.w3.org/2000/svg" xmlns:xlink="http://www.w3.org/1999/xlink" width="91.944" height="92" viewBox="0 0 91.944 92">
  <defs>
    <clipPath id="clip-path">
      <rect id="Rectangle_58" data-name="Rectangle 58" width="91.944" height="92" fill="#fff"/>
    </clipPath>
  </defs>
  <g id="Group_180" data-name="Group 180" transform="translate(0 0)" clip-path="url(#clip-path)">
    <path id="Path_72" data-name="Path 72" d="M1.246,53.168C1.246,25.142,13.774,19.4,32.585,19.4h6.036a5.161,5.161,0,0,1,4.285,2.369,5.779,5.779,0,0,1,.466,5.452L40.9,33.672a9.857,9.857,0,0,1,4.459,6.755l.022.23v.006a3.725,3.725,0,0,1,.034.506,3.6,3.6,0,0,0,1.1,2.29l7.147,6.582a23.735,23.735,0,0,1,1.791,1.836,4.762,4.762,0,0,1,1.1,3.184h35.4V5.1H0V55.067H1.246Zm59.926-8.2h12.46V33.638l-3.723,1.09a1.485,1.485,0,0,1-1.7-2.174l5.621-9.73a1.541,1.541,0,0,1,1.285-.691,1.524,1.524,0,0,1,1.281.691l5.621,9.73a1.485,1.485,0,0,1-1.7,2.168l-3.722-1.084V46.446a1.484,1.484,0,0,1-1.478,1.488H61.167a1.462,1.462,0,0,1-1.078-.415,1.486,1.486,0,0,1,1.078-2.549Z" transform="translate(0 2.232)" fill="#fff"/>
    <path id="Path_91" data-name="Path 91" d="M0,0H58.634V4.819H0Z" transform="translate(0 87.18)" fill="#fdb913"/>
    <path id="Path_73" data-name="Path 73" d="M53.406,23.706h.023l2.066.612-2.487-4.307-2.488,4.307,2.05-.6A1.455,1.455,0,0,1,53.406,23.706Z" transform="translate(22.102 8.755)" fill="#fff"/>
    <path id="Path_74" data-name="Path 74" d="M49.721,45.645l-7.137-6.575a6.616,6.616,0,0,1-2.044-4.353,2.746,2.746,0,0,0-.016-.286l-.023-.236H40.5a7.078,7.078,0,0,0-4-5.126,7.747,7.747,0,0,0-.933-.382c-.033-.012-.062-.027-.095-.039-.259-.091-.522-.152-.792-.218-.089-.023-.185-.057-.275-.079h.006a8.493,8.493,0,0,0-2.14-.18,1.48,1.48,0,0,1-1.561-1.482V20.129a8,8,0,0,0-4.245,2.23,7.87,7.87,0,0,0-2.228,4.313,1.476,1.476,0,0,1-1.4,1.241c-11.573.494-11.775,7.272-12.112,18.508q-.05,1.762-.124,3.623h-.006A62.131,62.131,0,0,1,7.471,68.533a42.4,42.4,0,0,1-3.116,6.873H46.738a7.566,7.566,0,0,0-.545-2.465,15.083,15.083,0,0,0-4.2-5.194c-.827-.775-1.685-1.584-2.516-2.477a16.46,16.46,0,0,1-4.185-7.676,22.154,22.154,0,0,1-1.026-3.582,31.712,31.712,0,0,1-6.9-2.477c-.208-.134-.365-.257-.522-.375a9.449,9.449,0,0,1-3.387-4.908,9.32,9.32,0,0,1-.168-4.745c0-.017.017-.034.022-.05a9.011,9.011,0,0,1,.815-2.258,1.483,1.483,0,0,1,2.634,1.364,6,6,0,0,0-.568,1.567.138.138,0,0,1-.01.04,6.291,6.291,0,0,0,.118,3.244,6.522,6.522,0,0,0,2.33,3.387l.016.017c.1.072.2.151.287.218V49.03a33.055,33.055,0,0,0,6.9,2.309l.736.157c.921.135,2.241.348,3.51.556l.719.118c1.751.3,3.273.572,3.666.64,1.028.045,2.168.085,3.049.05,1.9-.062,2.332-.381,3-1.617,0,0,.775-1.437.939-1.8a2.091,2.091,0,0,0-.2-2.245,20.49,20.49,0,0,0-1.534-1.555Z" transform="translate(1.905 8.806)" fill="#fdb913"/>
    <path id="Path_75" data-name="Path 75" d="M45.8,61.983l3.453,11.674h4.2l-9.4-31.731H39.8l6,20.04Z" transform="translate(17.411 18.342)" fill="#fff"/>
    <path id="Path_76" data-name="Path 76" d="M32.554,54.852c.7.651,1.4,1.308,2.066,2.01V45.1c-.516-.012-1.111-.029-1.841-.062-.068-.006-.134-.011-.2-.023,0,0-.842-.151-2.023-.359l.023,8.26C31.222,53.594,31.9,54.234,32.554,54.852Z" transform="translate(13.367 19.539)" fill="#fff"/>
    <path id="Path_77" data-name="Path 77" d="M6.012,66.687c.011-.033.017-.062.029-.095.045-.147.078-.3.122-.444.164-.584.321-1.167.461-1.747.062-.253.112-.5.168-.758.106-.472.207-.949.3-1.42.056-.282.1-.562.151-.842q.119-.658.22-1.314c.045-.288.083-.574.124-.854.056-.433.112-.854.162-1.275.033-.275.068-.551.095-.825.046-.433.085-.854.124-1.275.023-.253.046-.51.068-.758.034-.46.068-.91.1-1.358.01-.2.027-.411.039-.607.033-.641.068-1.269.095-1.882q.075-1.837.124-3.582C8.719,36.809,9,27.4,22.207,26.342l-.017-.006a10.815,10.815,0,0,1,2.8-4.751,10.992,10.992,0,0,1,7.829-3.24,1.451,1.451,0,0,1,.572.118,1.467,1.467,0,0,1,.8.8,1.554,1.554,0,0,1,.112.572v6.733a10.7,10.7,0,0,1,1.213.185c.128.029.252.056.375.091.282.066.562.139.837.23.073.022.147.033.22.056l2.392-6.239c.011-.023.016-.039.027-.062a2.811,2.811,0,0,0-.218-2.672,2.141,2.141,0,0,0-1.8-1.034H31.3c-14.353,0-28.368,2.375-28.368,30.8L2.93,63.813l3.078,2.875Z" transform="translate(1.282 7.491)" fill="#fff"/>
    <rect id="Rectangle_57" data-name="Rectangle 57" width="4.038" height="4.357" transform="translate(43.956)" fill="#6a6a6a"/>
  </g>
</svg>
