<svg xmlns="http://www.w3.org/2000/svg" xmlns:xlink="http://www.w3.org/1999/xlink" width="92" height="91.994" viewBox="0 0 92 91.994">
  <defs>
    <clipPath id="clip-path">
      <rect id="Rectangle_52" data-name="Rectangle 52" width="92" height="91.994" fill="#fff"/>
    </clipPath>
    <clipPath id="clip-path-2">
      <rect id="Rectangle_52-2" data-name="Rectangle 52" width="92" height="91.994" fill="#fbb813"/>
    </clipPath>
  </defs>
  <g id="Sales-engine" transform="translate(-600 -3487)">
    <g id="Group_173" data-name="Group 173" transform="translate(600 3487)">
      <g id="Group_172" data-name="Group 172" transform="translate(0 0)" clip-path="url(#clip-path)">
        <path id="Path_57" data-name="Path 57" d="M80.558,58.157a1.389,1.389,0,0,0-1.254-.191L54.431,66.258h-5.35a6.969,6.969,0,0,0,0,13.938h1.394v4.183a1.395,1.395,0,0,0,2.789,0V80.2h1.166L79.3,88.489a1.358,1.358,0,0,0,.443.07,1.4,1.4,0,0,0,1.4-1.394V59.287a1.391,1.391,0,0,0-.579-1.13ZM44.9,73.228a4.188,4.188,0,0,1,4.183-4.183h4.183v8.362H49.08A4.187,4.187,0,0,1,44.9,73.224Zm33.452,12L56.049,77.8v-9.14l22.3-7.437Z" transform="translate(2.499 3.435)" fill="#fff"/>
        <path id="Path_58" data-name="Path 58" d="M85.764,71.052H82.975a1.395,1.395,0,0,0,0,2.789h2.789a1.395,1.395,0,0,0,0-2.789" transform="translate(4.841 4.216)" fill="#fff"/>
        <path id="Path_59" data-name="Path 59" d="M82.976,68.653a1.389,1.389,0,0,0,.985-.41l1.394-1.394a1.393,1.393,0,1,0-1.969-1.97l-1.4,1.4a1.395,1.395,0,0,0,.985,2.379Z" transform="translate(4.841 3.826)" fill="#fff"/>
        <path id="Path_60" data-name="Path 60" d="M83.96,76.723a1.393,1.393,0,1,0-1.969,1.969l1.394,1.4a1.393,1.393,0,1,0,1.969-1.97Z" transform="translate(4.841 4.528)" fill="#fff"/>
        <path id="Path_61" data-name="Path 61" d="M18.894,12.075v4.754L15.77,19.953a6.932,6.932,0,0,0-2.007,5.687l.431,3.819a1.728,1.728,0,0,1-.195.907,36.135,36.135,0,0,0-1.535,3.695,1.7,1.7,0,0,1-.447.74,4.225,4.225,0,0,1-1.489-3.207V12.079a4.183,4.183,0,1,1,8.367,0Z" transform="translate(0.625 0.469)" fill="#fff"/>
        <path id="Path_62" data-name="Path 62" d="M29.42,4.18V14.674a1.364,1.364,0,0,1-.725.141l-3.832-.43a6.725,6.725,0,0,0-3.807.671V4.184a4.184,4.184,0,1,1,8.368,0Z" transform="translate(1.249 0)" fill="#fff"/>
        <path id="Path_63" data-name="Path 63" d="M8.367,19.969V31.121a4.183,4.183,0,0,1-8.367,0V19.969a4.183,4.183,0,1,1,8.367,0" transform="translate(0 0.937)" fill="#fff"/>
        <path id="Path_64" data-name="Path 64" d="M80.119,39.345l-3.012-2.412A4.432,4.432,0,0,1,75.729,34.9a31.7,31.7,0,0,0-1.407-3.389,4.51,4.51,0,0,1-.46-2.425l.377-3.431A4.45,4.45,0,0,0,73.1,21.833l-4.025-4.027a4.19,4.19,0,0,0-3.414-1.2l-3.832.43a4.505,4.505,0,0,1-2.425-.459,31.933,31.933,0,0,0-3.39-1.407,4.478,4.478,0,0,1-2.035-1.378l-2.413-3.025A4.182,4.182,0,0,0,48.3,9.208H42.616a4.14,4.14,0,0,0-3.261,1.576L36.944,13.8a4.449,4.449,0,0,1-2.036,1.378,33,33,0,0,0-3.39,1.407,4.505,4.505,0,0,1-2.425.459l-3.832-.43a4.167,4.167,0,0,0-3.414,1.2l-4.025,4.027a4.187,4.187,0,0,0-1.2,3.413l.43,3.833a4.509,4.509,0,0,1-.459,2.425A30.856,30.856,0,0,0,15.185,34.9a4.471,4.471,0,0,1-1.377,2.036l-3.025,2.412a4.183,4.183,0,0,0-1.56,3.261v5.685A4.136,4.136,0,0,0,10.8,51.552l3.013,2.413A4.439,4.439,0,0,1,15.189,56,31.792,31.792,0,0,0,16.6,59.39a4.5,4.5,0,0,1,.46,2.425l-.376,3.43a4.448,4.448,0,0,0,1.142,3.82l4.025,4.025a4.19,4.19,0,0,0,3.414,1.2l3.832-.43a4.5,4.5,0,0,1,2.425.46,32.026,32.026,0,0,0,3.39,1.407A4.465,4.465,0,0,1,36.944,77.1l2.412,3.024a4.18,4.18,0,0,0,3.261,1.56h.43a9.516,9.516,0,0,1-1.771-5.574,9.77,9.77,0,0,1,9.758-9.758h4.891l18.05-6.02a5.529,5.529,0,0,1,.349-.948A32.008,32.008,0,0,0,75.729,56a4.471,4.471,0,0,1,1.377-2.036l3.025-2.412a4.18,4.18,0,0,0,1.56-3.262V42.606a4.138,4.138,0,0,0-1.577-3.261Zm-50,22.83a1.394,1.394,0,1,1-2.788,0V52.417a1.394,1.394,0,1,1,2.788,0Zm11.147,0a1.394,1.394,0,1,1-2.788,0V59.385a1.394,1.394,0,1,1,2.788,0Zm11.152,0a1.394,1.394,0,1,1-2.788,0V45.449a1.394,1.394,0,0,1,2.788,0Zm11.152,0a1.394,1.394,0,1,1-2.788,0V35.691a1.394,1.394,0,1,1,2.788,0ZM62.18,32.9a4.062,4.062,0,0,1-2.036-.558l-5.243,4.6a4.05,4.05,0,0,1,.306,1.536,4.2,4.2,0,0,1-4.183,4.183,4.09,4.09,0,0,1-1.365-.252l-6.245,7.82a4.02,4.02,0,0,1,.642,2.19,4.184,4.184,0,0,1-8.368,0,4.7,4.7,0,0,1,.1-.907l-4.474-2.8A4.172,4.172,0,1,1,32.9,45.449a4.761,4.761,0,0,1-.1.906l4.473,2.8a4.175,4.175,0,0,1,2.594-.918,4.07,4.07,0,0,1,1.367.252l6.244-7.821a4.018,4.018,0,0,1-.641-2.189A4.2,4.2,0,0,1,51.024,34.3a4.063,4.063,0,0,1,2.036.559l5.243-4.6A4.024,4.024,0,0,1,58,28.719,4.183,4.183,0,1,1,62.18,32.9" transform="translate(0.547 0.547)" fill="#fff"/>
        <path id="Path_65" data-name="Path 65" d="M60.686,27.708a1.4,1.4,0,0,1-2.789,0,1.395,1.395,0,0,1,2.789,0" transform="translate(3.435 1.562)" fill="#fff"/>
        <path id="Path_66" data-name="Path 66" d="M50.159,36.919a1.392,1.392,0,1,1-2.785,0,1.392,1.392,0,1,1,2.785,0" transform="translate(2.811 2.108)" fill="#fff"/>
        <path id="Path_67" data-name="Path 67" d="M39.632,50.075a1.392,1.392,0,1,1-2.785,0,1.392,1.392,0,1,1,2.785,0" transform="translate(2.186 2.889)" fill="#fff"/>
        <path id="Path_68" data-name="Path 68" d="M29.108,43.5a1.4,1.4,0,0,1-2.789,0,1.395,1.395,0,0,1,2.789,0" transform="translate(1.562 2.499)" fill="#fff"/>
      </g>
    </g>
    <g id="Group_220" data-name="Group 220" transform="translate(600 3487)">
      <g id="Group_172-2" data-name="Group 172" transform="translate(0 0)" clip-path="url(#clip-path-2)">
        <path id="Path_57-2" data-name="Path 57" d="M80.558,58.157a1.389,1.389,0,0,0-1.254-.191L54.431,66.258h-5.35a6.969,6.969,0,0,0,0,13.938h1.394v4.183a1.395,1.395,0,0,0,2.789,0V80.2h1.166L79.3,88.489a1.358,1.358,0,0,0,.443.07,1.4,1.4,0,0,0,1.4-1.394V59.287a1.391,1.391,0,0,0-.579-1.13ZM44.9,73.228a4.188,4.188,0,0,1,4.183-4.183h4.183v8.362H49.08A4.187,4.187,0,0,1,44.9,73.224Zm33.452,12L56.049,77.8v-9.14l22.3-7.437Z" transform="translate(2.499 3.435)" fill="#fbb813"/>
        <path id="Path_58-2" data-name="Path 58" d="M85.764,71.052H82.975a1.395,1.395,0,0,0,0,2.789h2.789a1.395,1.395,0,0,0,0-2.789" transform="translate(4.841 4.216)" fill="#fbb813"/>
        <path id="Path_59-2" data-name="Path 59" d="M82.976,68.653a1.389,1.389,0,0,0,.985-.41l1.394-1.394a1.393,1.393,0,1,0-1.969-1.97l-1.4,1.4a1.395,1.395,0,0,0,.985,2.379Z" transform="translate(4.841 3.826)" fill="#fbb813"/>
        <path id="Path_60-2" data-name="Path 60" d="M83.96,76.723a1.393,1.393,0,1,0-1.969,1.969l1.394,1.4a1.393,1.393,0,1,0,1.969-1.97Z" transform="translate(4.841 4.528)" fill="#fbb813"/>
        <path id="Path_61-2" data-name="Path 61" d="M18.894,12.075v4.754L15.77,19.953a6.932,6.932,0,0,0-2.007,5.687l.431,3.819a1.728,1.728,0,0,1-.195.907,36.135,36.135,0,0,0-1.535,3.695,1.7,1.7,0,0,1-.447.74,4.225,4.225,0,0,1-1.489-3.207V12.079a4.183,4.183,0,1,1,8.367,0Z" transform="translate(0.625 0.469)" fill="#fbb813"/>
        <path id="Path_62-2" data-name="Path 62" d="M29.42,4.18V14.674a1.364,1.364,0,0,1-.725.141l-3.832-.43a6.725,6.725,0,0,0-3.807.671V4.184a4.184,4.184,0,1,1,8.368,0Z" transform="translate(1.249 0)" fill="#fbb813"/>
        <path id="Path_63-2" data-name="Path 63" d="M8.367,19.969V31.121a4.183,4.183,0,0,1-8.367,0V19.969a4.183,4.183,0,1,1,8.367,0" transform="translate(0 0.937)" fill="#fbb813"/>
      </g>
    </g>
  </g>
</svg>
