<svg xmlns="http://www.w3.org/2000/svg" xmlns:xlink="http://www.w3.org/1999/xlink" width="78.12" height="92" viewBox="0 0 78.12 92">
  <defs>
    <clipPath id="clip-path">
      <rect id="Rectangle_51" data-name="Rectangle 51" width="78.12" height="92" fill="#fdb913"/>
    </clipPath>
    <clipPath id="clip-path-2">
      <rect id="Rectangle_51-2" data-name="Rectangle 51" width="78.12" height="92" fill="#6a6a6a"/>
    </clipPath>
  </defs>
  <g id="valuation-exti-strat" transform="translate(-604 -3487)">
    <g id="Group_171" data-name="Group 171" transform="translate(604 3487)">
      <g id="Group_170" data-name="Group 170" transform="translate(0 0)" clip-path="url(#clip-path)">
        <path id="Path_56" data-name="Path 56" d="M77.6,33.949,75.73,37.2,69.037,33.33l1.874-3.245A3.864,3.864,0,1,1,77.6,33.949ZM23.767,16.171H43.784a1.852,1.852,0,0,0,1.847-1.847V7.484a1.854,1.854,0,0,0-1.847-1.849H40.3a.95.95,0,0,1-.948-.817,5.637,5.637,0,0,0-11.155,0,.951.951,0,0,1-.949.817H23.766a1.853,1.853,0,0,0-1.847,1.849l0,6.84a1.853,1.853,0,0,0,1.851,1.847Zm38.5-2.481a3.848,3.848,0,0,1,1.128,2.723V39.276l4.149-7.187,0-15.675a8.014,8.014,0,0,0-8-8h-12v4.149h12A3.844,3.844,0,0,1,62.265,13.69ZM51.694,71.1a.518.518,0,0,0,.566,0l5.861-4.26-5.955-3.438-.759,7.2A.519.519,0,0,0,51.694,71.1ZM8,14.476H20a3.77,3.77,0,0,0,3.762,3.609H43.784a3.77,3.77,0,0,0,3.761-3.609h12a1.933,1.933,0,0,1,1.933,1.933V42.587L50.413,61.766,49.5,70.412a2.488,2.488,0,0,0,3.888,2.248l7.033-5.115,1.056-1.829V84a1.933,1.933,0,0,1-1.933,1.933H8A1.935,1.935,0,0,1,6.071,84l0-67.585A1.941,1.941,0,0,1,8,14.477Zm19.609,9.189a.955.955,0,0,0,.957.958H55.01a.958.958,0,0,0,0-1.916H28.574a.96.96,0,0,0-.962.957Zm0,5.072a.955.955,0,0,0,.957.957H45.006a.957.957,0,0,0,0-1.915H28.575A.958.958,0,0,0,27.613,28.737Zm0,7.757a.954.954,0,0,0,.957.956H55.01a.957.957,0,1,0,0-1.913H28.574a.962.962,0,0,0-.962.957Zm0,5.069a.955.955,0,0,0,.957.957H45.006a.958.958,0,0,0,0-1.916H28.575A.962.962,0,0,0,27.613,41.563Zm0,7.762a.955.955,0,0,0,.957.957H55.01a.957.957,0,1,0,0-1.915H28.574a.959.959,0,0,0-.962.957Zm0,5.069a.955.955,0,0,0,.957.957H45.006a.958.958,0,0,0,0-1.916H28.575A.96.96,0,0,0,27.613,54.394Zm0,7.758a.956.956,0,0,0,.957.957H48.179a.958.958,0,0,0,0-1.916h-19.6A.96.96,0,0,0,27.613,62.152Zm0,5.069a.955.955,0,0,0,.957.957H45.006a.957.957,0,0,0,0-1.915H28.575A.959.959,0,0,0,27.613,67.222Zm0,7.762a.955.955,0,0,0,.957.957H55.01a.957.957,0,1,0,0-1.915l-26.436,0a.963.963,0,0,0-.962.962Zm0,5.069a.955.955,0,0,0,.957.957H45.006a.957.957,0,0,0,0-1.915l-16.431,0A.963.963,0,0,0,27.613,80.053ZM11.856,26.879l3.169,3.17a.964.964,0,0,0,1.358,0l6.333-6.334a.96.96,0,0,0-1.358-1.358L15.7,28.012l-2.49-2.491a.96.96,0,1,0-1.358,1.358Zm0,12.827,3.169,3.167a.962.962,0,0,0,1.358,0l6.333-6.331a.96.96,0,0,0-1.358-1.358L15.7,40.837l-2.49-2.489a.96.96,0,1,0-1.358,1.358Zm6.782,12.152,2.386-2.386a.96.96,0,0,0-1.358-1.358L17.281,50.5l-2.386-2.386a.96.96,0,0,0-1.358,1.358l2.386,2.386-2.386,2.386A.96.96,0,0,0,14.895,55.6l2.386-2.386L19.667,55.6a.96.96,0,0,0,1.358-1.358ZM11.856,65.364l3.169,3.169a.964.964,0,0,0,1.358,0L22.715,62.2a.96.96,0,0,0-1.358-1.358L15.7,66.5l-2.49-2.49a.96.96,0,0,0-1.358,1.358Zm0,12.826,3.169,3.169a.964.964,0,0,0,1.358,0l6.333-6.333a.96.96,0,1,0-1.358-1.358L15.7,79.322l-2.49-2.49a.96.96,0,0,0-1.358,1.358ZM52.75,61.538,59.442,65.4,74.777,38.846,68.085,34.98ZM63.4,84a3.852,3.852,0,0,1-3.852,3.852H8A3.852,3.852,0,0,1,4.153,84V16.411A3.85,3.85,0,0,1,8,12.559H20V8.407H8a8.014,8.014,0,0,0-8,8V84a8.014,8.014,0,0,0,8,8l51.541,0a8.014,8.014,0,0,0,8-8l0-28.79L63.4,62.388Z" transform="translate(0 0)" fill="#fdb913"/>
      </g>
    </g>
    <g id="Group_221" data-name="Group 221" transform="translate(604 3487)">
      <g id="Group_170-2" data-name="Group 170" transform="translate(0 0)" clip-path="url(#clip-path-2)">
        <path id="Path_56-2" data-name="Path 56" d="M9.192,17.308h12a3.77,3.77,0,0,0,3.762,3.609H44.971a3.77,3.77,0,0,0,3.761-3.609h12a1.933,1.933,0,0,1,1.933,1.933V45.419L51.6,64.6l-.912,8.646a2.488,2.488,0,0,0,3.888,2.248l7.033-5.115,1.056-1.829V86.831a1.933,1.933,0,0,1-1.933,1.933H9.192a1.935,1.935,0,0,1-1.933-1.933l0-67.585a1.941,1.941,0,0,1,1.936-1.936ZM28.8,26.5a.955.955,0,0,0,.957.958H56.2a.958.958,0,0,0,0-1.916H29.761a.96.96,0,0,0-.962.957Zm0,5.072a.955.955,0,0,0,.957.957H46.193a.957.957,0,0,0,0-1.915H29.762A.958.958,0,0,0,28.8,31.569Zm0,7.757a.954.954,0,0,0,.957.956H56.2a.957.957,0,1,0,0-1.913H29.761a.962.962,0,0,0-.962.957Zm0,5.069a.955.955,0,0,0,.957.957H46.193a.958.958,0,0,0,0-1.916H29.762A.962.962,0,0,0,28.8,44.4Zm0,7.762a.955.955,0,0,0,.957.957H56.2a.957.957,0,1,0,0-1.915H29.761a.959.959,0,0,0-.962.957Zm0,5.069a.955.955,0,0,0,.957.957H46.193a.958.958,0,0,0,0-1.916H29.762A.96.96,0,0,0,28.8,57.226Zm0,7.758a.956.956,0,0,0,.957.957H49.366a.958.958,0,0,0,0-1.916h-19.6A.96.96,0,0,0,28.8,64.984Zm0,5.069a.955.955,0,0,0,.957.957H46.193a.957.957,0,0,0,0-1.915H29.762A.959.959,0,0,0,28.8,70.054Zm0,7.762a.955.955,0,0,0,.957.957H56.2a.957.957,0,1,0,0-1.915l-26.436,0a.963.963,0,0,0-.962.962Zm0,5.069a.955.955,0,0,0,.957.957H46.193a.957.957,0,0,0,0-1.915l-16.431,0A.963.963,0,0,0,28.8,82.885ZM13.044,29.711l3.169,3.17a.964.964,0,0,0,1.358,0L23.9,26.547a.96.96,0,1,0-1.358-1.358l-5.654,5.655L14.4,28.353a.96.96,0,1,0-1.358,1.358Zm0,12.827,3.169,3.167a.962.962,0,0,0,1.358,0L23.9,39.374a.96.96,0,1,0-1.358-1.358l-5.654,5.653L14.4,41.181a.96.96,0,1,0-1.358,1.358Zm6.782,12.152L22.212,52.3a.96.96,0,1,0-1.358-1.358l-2.386,2.386-2.386-2.386A.96.96,0,1,0,14.725,52.3l2.386,2.386-2.386,2.386a.96.96,0,1,0,1.358,1.358l2.386-2.386,2.386,2.386a.96.96,0,1,0,1.358-1.358ZM13.044,68.2l3.169,3.169a.964.964,0,0,0,1.358,0L23.9,65.032a.96.96,0,0,0-1.358-1.358l-5.654,5.654-2.49-2.49A.96.96,0,0,0,13.044,68.2Zm0,12.826,3.169,3.169a.964.964,0,0,0,1.358,0L23.9,77.858A.96.96,0,1,0,22.545,76.5l-5.654,5.654-2.49-2.49a.96.96,0,0,0-1.358,1.358ZM53.937,64.37l6.692,3.865Z" transform="translate(-1.187 -2.832)" fill="#fff"/>
      </g>
    </g>
  </g>
</svg>
