<svg xmlns="http://www.w3.org/2000/svg" xmlns:xlink="http://www.w3.org/1999/xlink" width="83.91" height="92" viewBox="0 0 83.91 92">
  <defs>
    <clipPath id="clip-path">
      <rect id="Rectangle_44" data-name="Rectangle 44" width="83.91" height="92" fill="#6a6a6a"/>
    </clipPath>
    <clipPath id="clip-path-2">
      <rect id="Rectangle_44-2" data-name="Rectangle 44" width="83.91" height="92" fill="#fdb913"/>
    </clipPath>
  </defs>
  <g id="Venture-Incubatio-Mgmt" transform="translate(-6309 -2353)">
    <g id="Venture-Incubatio-Mgmt-2" data-name="Venture-Incubatio-Mgmt" transform="translate(6309 2353)">
      <g id="Group_129" data-name="Group 129" transform="translate(0 0)" clip-path="url(#clip-path)">
        <path id="Path_38" data-name="Path 38" d="M46.235,55.886c1.076,5.255,2.544,11.053,4.634,13.9a15.245,15.245,0,0,0,4.521,4.1.193.193,0,0,1,0,.333,27.67,27.67,0,0,1-26.863,0,.192.192,0,0,1,0-.333,15.2,15.2,0,0,0,4.522-4.1c2.089-2.849,3.562-8.646,4.634-13.9a.19.19,0,0,1,.187-.155h8.183A.19.19,0,0,1,46.235,55.886ZM71.78,20.5a.192.192,0,0,0-.271,0L63.727,28.28a.192.192,0,0,0,0,.271,30.6,30.6,0,1,1-43.541,0,.192.192,0,0,0,0-.271L12.4,20.5a.192.192,0,0,0-.271,0A41.821,41.821,0,0,0,0,48.412a.192.192,0,0,0,.192.2H4.058a1.439,1.439,0,0,1,0,2.878l-3.862,0a.193.193,0,0,0-.192.2A41.81,41.81,0,0,0,11.136,78.557a.188.188,0,0,0,.275,0l2.731-2.731a1.436,1.436,0,1,1,2.032,2.031l-2.732,2.732a.19.19,0,0,0,0,.275A41.834,41.834,0,0,0,40.318,92a.194.194,0,0,0,.2-.192V87.942a1.439,1.439,0,0,1,2.878,0v3.866a.194.194,0,0,0,.2.192A41.818,41.818,0,0,0,70.467,80.868a.189.189,0,0,0,0-.275L67.74,77.861a1.436,1.436,0,0,1,2.031-2.031L72.5,78.561a.188.188,0,0,0,.275,0A41.834,41.834,0,0,0,83.909,51.685a.193.193,0,0,0-.191-.2H79.852a1.439,1.439,0,1,1,0-2.877h3.866a.193.193,0,0,0,.191-.2A41.8,41.8,0,0,0,71.781,20.5ZM44.27,1.292C51.782,13.4,53.1,32.767,53.963,52.653a.192.192,0,0,1-.192.2H30.14a.192.192,0,0,1-.191-.2c.867-19.89,2.181-39.254,9.692-51.361A2.72,2.72,0,0,1,44.27,1.292Zm-2.315,32.49A4.554,4.554,0,1,1,37.4,38.336a4.555,4.555,0,0,1,4.555-4.555M57.02,55.122a.187.187,0,0,1-.075-.146c-.192-4.408-.376-8.8-.651-13.23a.192.192,0,0,1,.309-.162l3.745,2.9a6.514,6.514,0,0,1,2.6,5.305v9.362a.191.191,0,0,1-.3.155Zm-30.129,0L21.264,59.31a.19.19,0,0,1-.3-.155V49.792a6.515,6.515,0,0,1,2.6-5.305l3.745-2.9a.192.192,0,0,1,.309.163c-.275,4.424-.459,8.82-.651,13.23A.165.165,0,0,1,26.891,55.122Z" transform="translate(0 0)" fill="#6a6a6a" fill-rule="evenodd"/>
      </g>
    </g>
    <g id="Venture-Incubatio-Mgmt-3" data-name="Venture-Incubatio-Mgmt" transform="translate(6309 2353)">
      <g id="Group_129-2" data-name="Group 129" transform="translate(0 0)" clip-path="url(#clip-path-2)">
        <path id="Path_38-2" data-name="Path 38" d="M46.235,55.886c1.076,5.255,2.544,11.053,4.634,13.9a15.245,15.245,0,0,0,4.521,4.1.193.193,0,0,1,0,.333,27.67,27.67,0,0,1-26.863,0,.192.192,0,0,1,0-.333,15.2,15.2,0,0,0,4.522-4.1c2.089-2.849,3.562-8.646,4.634-13.9a.19.19,0,0,1,.187-.155h8.183A.19.19,0,0,1,46.235,55.886ZM44.27,1.292C51.782,13.4,53.1,32.767,53.963,52.653a.192.192,0,0,1-.192.2H30.14a.192.192,0,0,1-.191-.2c.867-19.89,2.181-39.254,9.692-51.361A2.72,2.72,0,0,1,44.27,1.292Zm-2.315,32.49A4.554,4.554,0,1,1,37.4,38.336a4.555,4.555,0,0,1,4.555-4.555M57.02,55.122a.187.187,0,0,1-.075-.146c-.192-4.408-.376-8.8-.651-13.23a.192.192,0,0,1,.309-.162l3.745,2.9a6.514,6.514,0,0,1,2.6,5.305v9.362a.191.191,0,0,1-.3.155Zm-30.129,0L21.264,59.31a.19.19,0,0,1-.3-.155V49.792a6.515,6.515,0,0,1,2.6-5.305l3.745-2.9a.192.192,0,0,1,.309.163c-.275,4.424-.459,8.82-.651,13.23A.165.165,0,0,1,26.891,55.122Z" transform="translate(0 0)" fill="#fdb913" fill-rule="evenodd"/>
      </g>
    </g>
  </g>
</svg>
