<svg xmlns="http://www.w3.org/2000/svg" width="105" height="92.665" viewBox="0 0 105 92.665">
  <g id="wellness" transform="translate(-6307 -1392.667)">
    <g id="Wellness-2" data-name="Wellness" transform="translate(6307 1392.667)">
      <path id="Path_21" data-name="Path 21" d="M35.2,84.368a.875.875,0,0,0,1.238-1.238l-8.568-8.563a2.555,2.555,0,0,1-.843-2.745,3.651,3.651,0,0,1,2.4-2.018c1.883-.588,4.469-.169,6.829,2.191L42.6,78.31a13.532,13.532,0,0,0,3.323,2.4,11.6,11.6,0,0,1,4.421,3.915,12.9,12.9,0,0,1,1.9,4.272,22.978,22.978,0,0,1,.669,5.746v9.353a1.1,1.1,0,0,1-1.093,1.093H35.246a1.1,1.1,0,0,1-1.093-1.093v-3.622a9.879,9.879,0,0,0-3.039-7.253L22.45,84.571c-3.809-3.809-4.623-5.982-5.558-8.476Q12.37,64.045,7.829,52a5.494,5.494,0,0,1-.3-3.1,1.765,1.765,0,0,1,1.127-1.252,3.686,3.686,0,0,1,3.4.987,13.588,13.588,0,0,1,3.323,4.806L25.364,73.9a5.316,5.316,0,0,0,1.324,1.965l8.51,8.51ZM58.787,12.918A32.44,32.44,0,0,0,59.919,57.9a32.441,32.441,0,0,0,1.132-44.981,1.539,1.539,0,0,0-2.264,0ZM62.813,57.37a34.253,34.253,0,0,0,7.181-31.911,32.385,32.385,0,0,1,6.473-4.575,33.018,33.018,0,0,1,5.567-2.35,1.487,1.487,0,0,1,1.228.135,1.469,1.469,0,0,1,.727,1,32.42,32.42,0,0,1-21.181,37.7ZM49.839,25.464a32.385,32.385,0,0,0-6.473-4.575,33.017,33.017,0,0,0-5.567-2.35,1.536,1.536,0,0,0-1.96,1.132A32.42,32.42,0,0,0,57.02,57.37a34.254,34.254,0,0,1-7.181-31.911Zm30.3,33.385a30.074,30.074,0,0,1-17.988,1.734A18.616,18.616,0,0,0,65.4,63.6a18.91,18.91,0,0,0,18.758,2.028,1.53,1.53,0,0,0,.616-2.307,19.125,19.125,0,0,0-1.5-1.806,18.739,18.739,0,0,0-3.135-2.668ZM57.679,60.582a30.074,30.074,0,0,1-17.988-1.734,18.854,18.854,0,0,0-4.638,4.474,1.53,1.53,0,0,0,.616,2.307,18.883,18.883,0,0,0,22.009-5.047ZM82.6,55.675a28.34,28.34,0,0,1-19.255,3.357,34.27,34.27,0,0,0,21.35-21.4,28.513,28.513,0,0,1,9.541.352,1.532,1.532,0,0,1,1.146,1.979A28.307,28.307,0,0,1,82.6,55.679Zm-45.362,0A28.34,28.34,0,0,0,56.49,59.031a34.27,34.27,0,0,1-21.35-21.4,28.412,28.412,0,0,0-5.75-.178,28.763,28.763,0,0,0-3.8.525,1.532,1.532,0,0,0-1.146,1.979A28.32,28.32,0,0,0,37.23,55.67ZM84.629,84.359l8.51-8.51a5.2,5.2,0,0,0,1.324-1.965l9.993-20.464a13.526,13.526,0,0,1,3.323-4.806,3.686,3.686,0,0,1,3.4-.987,1.755,1.755,0,0,1,1.127,1.252,5.494,5.494,0,0,1-.3,3.1q-4.529,12.05-9.064,24.095c-.934,2.495-1.748,4.667-5.558,8.476L88.713,93.1a10.169,10.169,0,0,0-2.273,3.313,10.062,10.062,0,0,0-.766,3.94v3.622a1.1,1.1,0,0,1-1.093,1.093H68.01a1.1,1.1,0,0,1-1.093-1.093V94.622a22.979,22.979,0,0,1,.669-5.746,12.8,12.8,0,0,1,1.9-4.272,11.685,11.685,0,0,1,4.421-3.915,13.663,13.663,0,0,0,3.323-2.4l6.333-6.314c2.36-2.36,4.946-2.779,6.829-2.191A3.662,3.662,0,0,1,92.8,71.8a2.566,2.566,0,0,1-.843,2.745l-8.568,8.563a.875.875,0,0,0,1.238,1.238Z" transform="translate(-7.414 -12.422)" fill="#fff" fill-rule="evenodd"/>
    </g>
    <g id="Wellness-3" data-name="Wellness" transform="translate(6323.955 1392.667)">
      <path id="Path_21-2" data-name="Path 21" d="M56.688,12.918A32.44,32.44,0,0,0,57.82,57.9a32.441,32.441,0,0,0,1.132-44.981,1.539,1.539,0,0,0-2.264,0ZM60.714,57.37a34.253,34.253,0,0,0,7.181-31.911,32.385,32.385,0,0,1,6.473-4.575,33.018,33.018,0,0,1,5.567-2.35,1.487,1.487,0,0,1,1.228.135,1.469,1.469,0,0,1,.727,1,32.42,32.42,0,0,1-21.181,37.7ZM47.74,25.464a32.385,32.385,0,0,0-6.473-4.575,33.017,33.017,0,0,0-5.567-2.35,1.536,1.536,0,0,0-1.96,1.132,32.42,32.42,0,0,0,21.181,37.7A34.254,34.254,0,0,1,47.74,25.459Zm30.3,33.385a30.074,30.074,0,0,1-17.988,1.734,18.616,18.616,0,0,0,3.251,3.02,18.91,18.91,0,0,0,18.758,2.028,1.53,1.53,0,0,0,.616-2.307,19.125,19.125,0,0,0-1.5-1.806,18.739,18.739,0,0,0-3.135-2.668ZM55.58,60.582a30.074,30.074,0,0,1-17.988-1.734,18.854,18.854,0,0,0-4.638,4.474,1.53,1.53,0,0,0,.616,2.307A18.883,18.883,0,0,0,55.58,60.582ZM80.5,55.675a28.34,28.34,0,0,1-19.255,3.357,34.27,34.27,0,0,0,21.35-21.4,28.513,28.513,0,0,1,9.541.352,1.532,1.532,0,0,1,1.146,1.979A28.307,28.307,0,0,1,80.5,55.679Zm-45.362,0a28.34,28.34,0,0,0,19.255,3.357,34.27,34.27,0,0,1-21.35-21.4,28.412,28.412,0,0,0-5.75-.178,28.763,28.763,0,0,0-3.8.525,1.532,1.532,0,0,0-1.146,1.979A28.32,28.32,0,0,0,35.131,55.67Z" transform="translate(-22.269 -12.422)" fill="#fdb913" fill-rule="evenodd"/>
    </g>
  </g>
</svg>
